<?xml version="1.0" encoding="utf-8"?>
<!-- Generator: Adobe Illustrator 17.0.0, SVG Export Plug-In . SVG Version: 6.00 Build 0)  -->
<!DOCTYPE svg PUBLIC "-//W3C//DTD SVG 1.1//EN" "http://www.w3.org/Graphics/SVG/1.1/DTD/svg11.dtd">
<svg version="1.1" id="Layer_1" xmlns="http://www.w3.org/2000/svg" xmlns:xlink="http://www.w3.org/1999/xlink" x="0px" y="0px"
	 width="276px" height="231px" viewBox="0 0 276 231" enable-background="new 0 0 276 231" xml:space="preserve">
<g opacity="0.6">
	<linearGradient id="SVGID_1_" gradientUnits="userSpaceOnUse" x1="228.4441" y1="102.015" x2="45.0563" y2="137.2657">
		<stop  offset="0" style="stop-color:#B9D431"/>
		<stop  offset="1" style="stop-color:#41B8BA"/>
		<stop  offset="1" style="stop-color:#41B8BA"/>
	</linearGradient>
	<path fill="url(#SVGID_1_)" d="M235.208,137.203c-23.745,0.126-23.99-45.873-47.735-45.746
		c-23.744,0.126-23.499,46.126-47.244,46.252c-23.748,0.126-23.993-45.873-47.74-45.746c-23.748,0.126-23.503,46.126-47.25,46.252"
		/>
</g>
<g opacity="0.9">
	<linearGradient id="SVGID_2_" gradientUnits="userSpaceOnUse" x1="252.0606" y1="217.9007" x2="252.0606" y2="175.9939">
		<stop  offset="0" style="stop-color:#0C2E4E"/>
		<stop  offset="1" style="stop-color:#025192"/>
	</linearGradient>
	<path fill="url(#SVGID_2_)" d="M266.383,211.53c0.054,1.112,0.027,1.752,0.126,2.372c0.34,2.124-0.465,3.232-2.684,3.313
		c-5.774,0.211-9.684,0.948-15.419,0.588c-7.6-0.477-11.015-3.851-12.403-11.37c-1.26-6.823-1.314-13.727,0.337-20.507
		c1.53-6.282,5.039-9.313,11.432-9.752c4.046-0.278,8.155-0.236,12.194,0.125c5.695,0.509,8.563,4.34,8.967,10.058
		c0.731,10.358-1.992,13.887-12.416,13.98c-3.174,0.028-6.354,0.13-9.52-0.031c-2.323-0.119-2.758,0.916-2.555,2.928
		c0.485,4.806,2.303,7.194,7.118,7.838c3.926,0.525,7.948,0.345,11.928,0.45C265.008,211.564,264.637,211.53,266.383,211.53z
		 M251.24,195.095c0-0.012,0-0.024,0-0.037c1.714,0,3.433,0.076,5.142-0.018c2.424-0.133,4.389-0.966,5.016-3.661
		c0.656-2.823-0.468-6.629-2.397-7.86c-6.415-4.093-14.164-0.221-14.597,7.295c-0.247,4.28-0.247,4.28,4.13,4.281
		C249.435,195.095,250.337,195.095,251.24,195.095z"/>
	<linearGradient id="SVGID_3_" gradientUnits="userSpaceOnUse" x1="191.7955" y1="217.9772" x2="191.7955" y2="158.3863">
		<stop  offset="0" style="stop-color:#0C2E4E"/>
		<stop  offset="1" style="stop-color:#025192"/>
	</linearGradient>
	<path fill="url(#SVGID_3_)" d="M200.449,217.977c-3.235-0.169-6.328-0.028-9.302-0.555c-4.566-0.81-7.044-3.689-7.693-8.306
		c-0.264-1.877-0.441-3.784-0.446-5.678c-0.037-13.949,0.045-27.899-0.079-41.847c-0.023-2.569,0.805-3.271,3.249-3.199
		c6.848,0.2,5.974-0.748,5.999,5.894c0.045,12.047,0.002,24.094,0.024,36.141c0.003,1.809,0.075,3.625,0.255,5.424
		c0.261,2.609,1.644,4.303,4.278,4.945c4.025,0.983,4.02,1.013,3.897,5.194C200.616,216.438,200.55,216.884,200.449,217.977z"/>
	<linearGradient id="SVGID_4_" gradientUnits="userSpaceOnUse" x1="218.7949" y1="217.9007" x2="218.7949" y2="175.2162">
		<stop  offset="0" style="stop-color:#0C2E4E"/>
		<stop  offset="1" style="stop-color:#025192"/>
	</linearGradient>
	<path fill="url(#SVGID_4_)" d="M222.801,217.901c-2.789,0-5.488,0-8.422,0c0-14.145,0-28.172,0-42.661
		c2.494,0,5.004-0.088,7.498,0.075c0.489,0.032,1.316,1.033,1.318,1.589c0.042,13.427-0.005,26.855-0.048,40.282
		C223.146,217.348,222.996,217.509,222.801,217.901z"/>
	<path fill="#B9D431" d="M218.678,168.012c-0.721-0.002-1.447-0.054-2.162,0.007c-2.122,0.181-2.839-0.772-2.791-2.865
		c0.176-7.626-1.017-6.644,6.768-6.812c2.318-0.05,3.416,0.693,3.162,3.082c-0.057,0.535-0.009,1.081-0.009,1.622
		C223.649,168.671,223.819,167.954,218.678,168.012z"/>
	<linearGradient id="SVGID_5_" gradientUnits="userSpaceOnUse" x1="86.4602" y1="217.9126" x2="86.4602" y2="175.9993">
		<stop  offset="0" style="stop-color:#0C2E4E"/>
		<stop  offset="1" style="stop-color:#025192"/>
	</linearGradient>
	<path fill="url(#SVGID_5_)" d="M104.415,196.994c0,4.129-0.803,7.767-2.41,10.913c-1.607,3.147-3.762,5.601-6.469,7.363
		c-2.707,1.763-5.732,2.643-9.076,2.643c-3.345,0-6.37-0.88-9.076-2.643c-2.707-1.762-4.863-4.216-6.469-7.363
		c-1.607-3.146-2.409-6.784-2.409-10.913c0-4.128,0.802-7.766,2.409-10.913c1.606-3.146,3.763-5.613,6.469-7.401
		c2.707-1.787,5.732-2.681,9.076-2.681c3.344,0,6.37,0.894,9.076,2.681c2.707,1.787,4.862,4.255,6.469,7.401
		C103.612,189.228,104.415,192.866,104.415,196.994z M96.494,196.994c0-2.568-0.452-4.795-1.353-6.683
		c-0.902-1.888-2.112-3.361-3.63-4.418c-1.518-1.058-3.201-1.586-5.05-1.586s-3.532,0.528-5.05,1.586
		c-1.518,1.057-2.729,2.53-3.631,4.418c-0.902,1.888-1.353,4.116-1.353,6.683c0,2.518,0.451,4.72,1.353,6.608
		c0.902,1.888,2.112,3.361,3.631,4.418c1.518,1.057,3.201,1.586,5.05,1.586s3.532-0.529,5.05-1.586
		c1.518-1.057,2.728-2.53,3.63-4.418C96.042,201.714,96.494,199.512,96.494,196.994z"/>
	<linearGradient id="SVGID_6_" gradientUnits="userSpaceOnUse" x1="127.6505" y1="217.9126" x2="127.6505" y2="175.9993">
		<stop  offset="0" style="stop-color:#0C2E4E"/>
		<stop  offset="1" style="stop-color:#025192"/>
	</linearGradient>
	<path fill="url(#SVGID_6_)" d="M145.605,196.994c0,4.129-0.803,7.767-2.41,10.913c-1.607,3.147-3.762,5.601-6.469,7.363
		c-2.707,1.763-5.732,2.643-9.076,2.643c-3.345,0-6.37-0.88-9.076-2.643c-2.707-1.762-4.863-4.216-6.469-7.363
		c-1.607-3.146-2.409-6.784-2.409-10.913c0-4.128,0.802-7.766,2.409-10.913c1.606-3.146,3.763-5.613,6.469-7.401
		c2.707-1.787,5.732-2.681,9.076-2.681c3.344,0,6.37,0.894,9.076,2.681c2.707,1.787,4.862,4.255,6.469,7.401
		C144.802,189.228,145.605,192.866,145.605,196.994z M137.684,196.994c0-2.568-0.452-4.795-1.353-6.683
		c-0.902-1.888-2.112-3.361-3.63-4.418c-1.518-1.058-3.201-1.586-5.05-1.586c-1.848,0-3.532,0.528-5.05,1.586
		c-1.518,1.057-2.729,2.53-3.631,4.418c-0.902,1.888-1.353,4.116-1.353,6.683c0,2.518,0.451,4.72,1.353,6.608
		c0.902,1.888,2.112,3.361,3.631,4.418c1.518,1.057,3.201,1.586,5.05,1.586c1.848,0,3.532-0.529,5.05-1.586
		c1.518-1.057,2.728-2.53,3.63-4.418C137.232,201.714,137.684,199.512,137.684,196.994z"/>
	<linearGradient id="SVGID_7_" gradientUnits="userSpaceOnUse" x1="163.884" y1="217.9007" x2="163.884" y2="158.599">
		<stop  offset="0" style="stop-color:#0C2E4E"/>
		<stop  offset="1" style="stop-color:#025192"/>
	</linearGradient>
	<path fill="url(#SVGID_7_)" d="M172.495,217.901c-3.22-0.168-6.297-0.028-9.256-0.552c-4.543-0.806-7.009-3.671-7.656-8.266
		c-0.263-1.868-0.439-3.766-0.444-5.651c-0.037-13.881,0.045-27.764-0.079-41.644c-0.023-2.557,0.801-3.255,3.233-3.184
		c6.814,0.199,5.945-0.744,5.97,5.866c0.044,11.988,0.002,23.977,0.024,35.966c0.003,1.8,0.075,3.608,0.254,5.398
		c0.26,2.597,1.636,4.282,4.257,4.922c4.005,0.978,4,1.008,3.878,5.168C172.662,216.369,172.596,216.813,172.495,217.901z"/>
	<linearGradient id="SVGID_8_" gradientUnits="userSpaceOnUse" x1="40.2735" y1="217.8973" x2="40.2735" y2="158.4663">
		<stop  offset="0" style="stop-color:#0C2E4E"/>
		<stop  offset="1" style="stop-color:#025192"/>
	</linearGradient>
	<path fill="url(#SVGID_8_)" d="M60.956,159.697c-0.731-0.82-1.72-1.231-2.972-1.231c-1.094,0-2.046,0.411-2.854,1.231
		c-0.809,0.821-1.212,1.854-1.212,3.099v20.6H26.707v-20.6c0-1.244-0.404-2.277-1.212-3.099c-0.809-0.82-1.734-1.231-2.776-1.231
		c-1.251,0-2.268,0.411-3.05,1.231c-0.782,0.821-1.173,1.854-1.173,3.099v50.772c0,1.245,0.378,2.279,1.134,3.099
		c0.755,0.821,1.733,1.231,2.932,1.231c1.095,0,2.045-0.41,2.854-1.231c0.808-0.82,1.238-1.853,1.29-3.099v-20.464h27.211v20.464
		c0,1.245,0.391,2.279,1.173,3.099c0.782,0.821,1.72,1.231,2.815,1.231c1.251,0,2.254-0.41,3.01-1.231
		c0.755-0.82,1.134-1.853,1.134-3.099v-50.772C62.05,161.552,61.685,160.519,60.956,159.697z"/>
</g>
<g>
	<linearGradient id="SVGID_9_" gradientUnits="userSpaceOnUse" x1="139.4914" y1="136.6289" x2="139.4914" y2="29.5703">
		<stop  offset="0" style="stop-color:#025192"/>
		<stop  offset="1" style="stop-color:#41B8BA"/>
	</linearGradient>
	<path fill="none" stroke="url(#SVGID_9_)" stroke-width="7" stroke-miterlimit="10" d="M188.359,133.129
		C163.925,133.1,164.045,33.1,139.611,33.07s-24.554,99.971-48.987,99.941"/>
</g>
</svg>
