<?xml version="1.0" encoding="utf-8"?>
<!-- Generator: Adobe Illustrator 17.0.0, SVG Export Plug-In . SVG Version: 6.00 Build 0)  -->
<!DOCTYPE svg PUBLIC "-//W3C//DTD SVG 1.1//EN" "http://www.w3.org/Graphics/SVG/1.1/DTD/svg11.dtd">
<svg version="1.1" id="Layer_1" xmlns="http://www.w3.org/2000/svg" xmlns:xlink="http://www.w3.org/1999/xlink" x="0px" y="0px"
	 width="676.665px" height="480.071px" viewBox="0 0 676.665 480.071" enable-background="new 0 0 676.665 480.071"
	 xml:space="preserve">
<g>
	<path fill="#E3E8FE" d="M622.577,242.63c-14.355-32.691,44.237-79.609-59.585-114.448c-35.559-11.932-62.173-47.38-91.858-68.905
		c-39.467-28.619-88.082-36.7-135.465-42.437c-22.179-2.686-46.233-1.039-64.32,12.076c-20.095,14.57-28.4,39.187-42.972,58.358
		c-14.504,19.082-37.469,26.923-59.901,32.331c-24.083,5.805-48.872,6.278-66.684,25.603
		c-12.908,14.004-21.871,25.148-39.149,34.643c-26.147,14.371-45.533,26.536-47.479,58.592c-1.706,28.094,8.411,57.033,28.268,77.15
		c16.948,17.17,38.943,29.015,57.488,44.381c6.826,5.656,13.113,14.077,15.627,22.614c2.047,6.953,0.957,15.328-4.533,20.06
		c-5.201,4.483-12.958,4.749-18.502,8.801c-7.833,5.724-8.808,17.696-4.519,26.4c9.274,18.82,32.431,25.397,51.353,28.776
		c3.269,0.584,6.542,1.091,9.846,1.474c46.247,5.365,98.726-14.273,142.393-21.64c73.883-12.464,142.814,25.822,216.882,1.725
		c38.547-12.541,77.339-32.596,103.307-63.73c17.563-21.058,60.056-50.534,60.063-75.123
		C672.848,266.903,632.234,264.621,622.577,242.63z"/>
	<g>
		<g>
			<path fill="#2175FB" d="M542.171,305.652c7.402,4.531,10.216,6.946,13.034,7.816c6.034-2.853,11.176-6.802,15.461-11.053
				c-10.877-0.779-16.147-5.359-16.147-5.359c6.173,3.395,13.964,3.64,17.947,3.5c10.286-10.999,15.083-23.159,15.083-23.159
				c-4.398-1.056-8.508-1.838-12.37-2.37c-5.623,4.296-11.764,10.699-11.764,10.699c2.178-3.59,6.277-7.951,9.357-11.001
				c-5.625-0.64-10.716-0.73-15.406-0.345c-5.905,4.2-13.961,13.789-13.961,13.789c2.329-4.477,7.355-10.251,10.218-13.371
				c-8.123,1.154-15.058,3.795-21.607,7.472c-3.762,5.01-7.054,10.541-7.054,10.541c0.888-2.701,2.556-5.945,4.258-8.897
				c-7.277,4.468-14.214,10.168-21.967,16.451l-5.028,7.118l9.94,5.355c15.742,6.636,28.806,6.136,39.389,2.178
				C549.616,311.439,542.171,305.652,542.171,305.652z"/>
			<path fill="#628AEC" d="M504.868,306.815c3.026-0.048,6.027-0.52,8.976-1.18c2.952-0.657,5.865-1.481,8.754-2.38
				c5.784-1.783,11.479-3.852,17.17-5.94c5.692-2.084,11.335-4.329,17.13-6.165c2.895-0.921,5.806-1.802,8.747-2.577
				c2.938-0.785,5.909-1.46,8.906-1.972l0.034,0.143c-5.797,1.809-11.511,3.777-17.22,5.797c-5.702,2.032-11.465,3.915-17.206,5.881
				c-5.745,1.952-11.504,3.888-17.355,5.538c-2.93,0.808-5.883,1.542-8.872,2.107c-2.985,0.568-6.023,0.946-9.066,0.896
				L504.868,306.815z"/>
		</g>
		<g>
			<g>
				<path fill="#96B3FF" d="M551.809,283.547c1.271-0.971,2.502-1.964,3.687-2.972L551.809,283.547z"/>
				<path fill="#96B3FF" d="M543.077,284.215l12.465-3.681c5.887-5.016,10.682-10.372,14.095-14.9
					c-4.56-2.572-15.514-0.577-15.514-0.577c11.035-2.925,14.721-2.594,18.339-3.536c4.463-7.116,5.212-16.161,6.832-23.621
					c-12.167,6.425-15.503,7.21-15.503,7.21c7.509-3.162,11.974-7.611,16.133-10.423c3.335-18.765-1.604-26.489-1.604-26.489
					c-5.437,1.796-16.961,7.425-21.46,9.43c-3.018,8.402-5.124,19.429-5.124,19.429c-0.171-5.337,1.173-12.791,2.342-18.146
					c-6.457,3.066-5.372,2.641-10.117,6.191c-3.387,8.486-5.321,24.237-5.321,24.237c-0.628-6.397,0.724-15.998,1.611-21.284
					c-7.878,6.675-13.451,14.163-17.891,22.515c-0.532,7.93-0.201,16.11-0.201,16.11c-0.931-3.514-1.407-8.136-1.644-12.465
					c-4.666,9.693-8.112,20.491-12.024,32.465l-0.418,11.056l14.352-0.851c11.096-1.729,21.053-7,29.27-13.253L543.077,284.215z"/>
			</g>
			<path fill="#2175FB" d="M527.618,280.177c-2.568,2.831-5.214,5.598-8.015,8.206c-2.795,2.609-5.778,5.047-9.066,7.025l-0.1-0.16
				c3.201-2.074,6.08-4.589,8.771-7.273c2.697-2.682,5.237-5.52,7.699-8.421c4.94-5.791,9.587-11.835,14.215-17.894
				c4.633-6.056,9.101-12.254,14.014-18.111c2.453-2.93,4.95-5.827,7.555-8.63c2.594-2.811,5.299-5.526,8.146-8.083l0.136,0.131
				c-4.936,5.829-9.672,11.774-14.368,17.772c-4.679,6.007-9.527,11.893-14.294,17.854
				C537.53,268.542,532.723,274.484,527.618,280.177z"/>
		</g>
		<path fill="#2175FB" d="M533.762,259.454c-0.618,0.821-1.268,1.638-1.948,2.447L533.762,259.454z M531.755,261.972
			c-4.393,5.217-10.051,10.051-16.953,12.767l-9.128,2.62l-1.326-7.186c0.793-8.282,1.456-15.739,3.065-22.661
			c0.777,2.757,1.751,5.667,2.858,7.797c0,0-1.394-5.224-2.196-10.413c1.656-6.024,4.168-11.655,8.282-17.094
			c0.191,3.535,0.705,9.919,2.033,13.951c0,0-1.027-10.431-0.068-16.39c2.546-2.973,1.908-2.542,5.627-5.45
			c0.02,3.62,0.229,8.619,1.109,12.034c0,0-0.234-7.411,0.499-13.262c2.61-1.942,9.226-7.233,12.471-9.176
			c0,0,4.298,4.266,4.857,16.842c-2.275,2.413-4.511,5.925-8.894,9.046c0,0,2.037-0.987,8.952-6.884
			c0.032,5.041,0.855,10.98-0.995,16.211c-2.196,1.129-4.619,1.448-11.31,4.926c0,0,6.772-2.867,10.083-1.867
			c-1.546,3.411-3.863,7.555-6.934,11.638l-7.503,4.172L531.755,261.972z"/>
		<path fill="#628AEC" d="M522.669,249.767c2.212-4.53,4.487-9.024,6.636-13.571c2.161-4.544,4.355-9.059,6.696-13.529l-0.106-0.065
			c-1.466,2.059-2.818,4.199-4.084,6.385c-1.274,2.182-2.465,4.41-3.624,6.653c-2.322,4.484-4.307,9.124-6.419,13.696
			c-2.108,4.574-4.231,9.139-6.579,13.585c-1.168,2.226-2.396,4.421-3.747,6.539c-1.348,2.119-2.84,4.155-4.604,5.953l0.088,0.089
			c1.833-1.75,3.404-3.752,4.829-5.836c1.429-2.085,2.735-4.25,3.982-6.446C518.205,258.814,520.446,254.291,522.669,249.767z"/>
	</g>
	<g>
		<path fill="#B1B8FF" d="M458.725,416.75H233.187c-3.568,0-6.46-2.892-6.46-6.46l0,0c0-3.568,2.892-6.46,6.46-6.46h225.539
			c3.568,0,6.46,2.892,6.46,6.46l0,0C465.185,413.857,462.293,416.75,458.725,416.75z"/>
		<g>
			<g>
				<g>
					<g>
						<rect x="344.496" y="69.371" fill="#5065FC" width="9.78" height="340.918"/>
						<polygon fill="#5065FC" points="441.252,410.29 429.969,410.29 349.386,270.719 343.74,260.948 349.386,251.17 
							355.031,260.948 						"/>
						<polygon fill="#5065FC" points="355.031,260.948 349.386,270.719 268.803,410.29 257.519,410.29 343.74,260.948 
							349.386,251.17 						"/>
					</g>
					<g>
						<g>
							
								<rect x="298.969" y="37.292" transform="matrix(0.3272 0.9449 -0.9449 0.3272 288.5152 -221.4815)" fill="#5065FC" width="1.656" height="109.166"/>
						</g>
						<g>
							
								<rect x="346.348" y="91.047" transform="matrix(0.9451 0.3269 -0.3269 0.9451 52.0533 -126.0036)" fill="#5065FC" width="109.166" height="1.656"/>
						</g>
					</g>
					<circle fill="#5065FC" cx="349.386" cy="74.342" r="9.985"/>
				</g>
				<rect x="190.131" y="108.305" fill="#FEFEFF" width="318.51" height="207.247"/>
			</g>
			<g>
				<circle fill="#E0E9FF" cx="444.115" cy="171.016" r="48.475"/>
				<g>
					<path fill="#96B3FF" d="M442.965,171.763l-37.806-13.187c-1.479,4.239-2.234,8.697-2.234,13.187
						c0,21.965,18.075,40.04,40.04,40.04c7.257,0,14.38-1.973,20.603-5.707L442.965,171.763z"/>
					<path fill="#5065FC" d="M445.04,171.016l20.866,34.173c5.856-3.576,10.695-8.597,14.053-14.581
						c3.357-5.984,5.121-12.731,5.121-19.592H445.04z"/>
					<path fill="#628AEC" d="M445.269,169.088l40.036-0.553c-0.075-5.448-1.262-10.824-3.487-15.797
						c-2.225-4.973-5.442-9.441-9.453-13.128L445.269,169.088z"/>
				</g>
			</g>
			<g>
				<rect x="214.55" y="122.541" fill="#96B3FF" width="51.619" height="11.675"/>
				<rect x="214.55" y="142.373" fill="#E0E9FF" width="157.216" height="11.675"/>
				<rect x="214.55" y="164.187" fill="#96B3FF" width="157.216" height="11.675"/>
				<rect x="214.55" y="186.002" fill="#E0E9FF" width="157.216" height="11.675"/>
				<rect x="214.55" y="207.816" fill="#96B3FF" width="157.216" height="11.674"/>
			</g>
			<g>
				<g>
					<g>
						<polygon fill="#E0E9FF" points="316.577,289.996 288.999,255.637 265.016,286.368 244.226,263.904 246.944,261.389 
							264.776,280.657 288.958,249.671 315.816,283.133 331.404,251.304 364.313,245.484 364.958,249.13 333.902,254.622 						"/>
					</g>
					<g>
						<circle fill="#E0E9FF" cx="364.635" cy="247.307" r="4.753"/>
					</g>
					<g>
						<circle fill="#E0E9FF" cx="316.394" cy="286.565" r="4.753"/>
					</g>
					<g>
						<circle fill="#E0E9FF" cx="332.1" cy="252.963" r="4.753"/>
					</g>
					<g>
						<circle fill="#E0E9FF" cx="288.797" cy="252.963" r="4.753"/>
					</g>
					<g>
						<circle fill="#E0E9FF" cx="265.463" cy="282.945" r="4.753"/>
					</g>
					<g>
						<circle fill="#E0E9FF" cx="246.616" cy="263.548" r="4.753"/>
					</g>
				</g>
				<g>
					<polygon fill="#E0E9FF" points="364.958,298.338 225.702,298.338 225.702,233.518 227.753,233.518 227.753,296.286 
						364.958,296.286 					"/>
				</g>
			</g>
			<g>
				<rect x="396.998" y="282.682" fill="#628AEC" width="41.228" height="9.379"/>
				<rect x="396.998" y="268.182" fill="#96B3FF" width="61.403" height="9.379"/>
				<rect x="396.998" y="253.682" fill="#E0E9FF" width="89.247" height="9.379"/>
				<rect x="396.998" y="239.182" fill="#E0E9FF" width="50.214" height="9.379"/>
				<g>
					<polygon fill="#5065FC" points="395.641,234.914 395.641,297.581 484.582,297.581 484.582,296.146 398.357,296.146 
						398.357,234.914 					"/>
				</g>
			</g>
		</g>
	</g>
	<g>
		<g>
			<path fill="#F4D87E" d="M193.787,118.932l2.706,3.762l1.703,0.598c0.633,0.223,1.471,1.228,1.242,1.858
				c-1.174,3.234-5.015,11.98-5.988,13.241c0,0-1.297-1.08-0.826-2.181c0.472-1.1,1.157-9.383,1.157-9.383l-2.582-3.47
				L193.787,118.932z"/>
			<path fill="#0B53FF" d="M200.101,124.863c0,0-1.716-2.009-2.744-1.866c0,0,0.9,1.422,0.562,3.316
				c-0.51,1.569-1.774,6.687-4.607,5.574c-0.485,1.755-1.128,5.273-0.856,6.949c0,0,0.908,0.21,1.431-0.343
				c0,0,1.93-2.692,2.583-3.719l3.248-7.99l2.319-0.08l0.411-0.932L200.101,124.863z"/>
			<path fill="#0B53FF" d="M207.162,91.067c0,0-30.289,0.499-33.639,2.232c-3.351,1.733-0.518,5.802,4.007,11.978
				c4.525,6.176,14.461,20.488,14.461,20.488l3.897-4.453l-11.157-19.807c0,0,27.35,5.159,29.99,2.04
				c2.639-3.119,3.582-7.311,1.2-12.292L207.162,91.067z"/>
		</g>
		<g>
			<path fill="#0B53FF" d="M184.738,42.813c-2.545-0.06-8.473,10.347,8.446,16.201c5.777,1.999,16.819-0.458,19.098-3.479
				c0,0-9.158-19.926-18.886-18.957C185.275,37.386,184.738,42.813,184.738,42.813z"/>
			<g>
				<path fill="#F4D87E" d="M164.678,86.538l3.838-2.465l5.05,0.783l17.233-3.569l0.583,5.05l-17.198,0.505l-1.842,0.415
					c-0.536,0.121-1.098,0.043-1.581-0.218l-2.301-1.245l-3.38,1.946L164.678,86.538z"/>
				<path fill="#D31C24" d="M195.873,59.324c-3.962,0.512-2.01,6.413-3.728,20.972l-16.797,2.82l0.91,4.082
					c0,0,18.206-0.222,20.983-0.681C200.288,78.974,202.567,58.459,195.873,59.324z"/>
			</g>
			<path fill="#F4D87E" d="M203.24,58.528c-1.771,1.649-1.486,3.674-4.062,3.567c-4.018,0.563-3.891-4.72-3.891-4.72
				c-1.546,0.511-4.385,0.766-6.646-2.636c-2.573-3.871-3.287-7.33-3.668-10.609c-0.244-2.104,0.644-3.463,4.195-4.446
				c3.551-0.987,6.182,0.083,9.087,3.864c2.378,3.103,2.786,10.391,2.786,10.391C201.667,55.278,203.24,58.528,203.24,58.528z"/>
			<path fill="#ED1C24" d="M217.769,93.849c0,0-8.673,0.056-13.067-0.42c-1.673-13.129-3.059-15.086-3.059-15.086
				c-4.519-0.561-5.854-2.012-5.852-4.187c-0.758-8.774-1.927-13.578-1.927-13.578c0.597-0.97,1.726-1.187,1.726-1.187
				s0.438,3.073,3.591,2.701c3.402-0.401,1.862-4.29,1.862-4.29c1.817-1.191,3.749-1.281,5.751-0.832
				c2.002,0.449,3.727,1.742,5.102,3.265c3.236,3.585,3.385,7.371,3.912,12.171c0.526,4.801-0.339,6.629-0.074,12.474
				C215.921,89.023,217.504,92.826,217.769,93.849z"/>
			<g>
				<path fill="#F4D87E" d="M178.382,92.831l2.234-3.679c0.287-0.388,0.716-0.647,1.193-0.722l4.538-0.707l18.949-3.195l0.204,4.858
					l-17.831,0.288l-1.677,1.06c-0.488,0.308-1.072,0.41-1.644,0.286l-2.724-0.59l-2.654,3.232L178.382,92.831z"/>
				<path fill="#FB1518" d="M203.949,59.892c0.767-1.746,1.517-2.962,3.613-2.887c5.869,0.212,1.835,8.922,5.963,25.876
					c0.418,1.718,0.656,6.313-4.208,6.587c-4.864,0.274-18.774,1.783-18.774,1.783l-1.902-5.597l17.059-2.36
					C205.7,83.295,201.963,64.413,203.949,59.892z"/>
			</g>
			<g>
				<path fill="#2175FB" d="M203.368,57.999c-6.498,1.729-5.263-4.718-5.263-4.718c2.405,0.65,2.025-5.33-0.438-5.77
					c-1.57-0.28-1.335,2.175-1.335,2.175c-5.8,3.244-12.458-3.25-11.602-7.66c0.462-2.382,1.116-3.93,3.912-5.493
					c3.43-1.918,6.687-1.008,9.616,0.276c6.301,2.762,6.091,9.391,12.767,9.985c15.148,1.347,3.783,8.361,12.204,11.271
					c4.84,1.673,9.188,2.052,9.188,12.423c0,10.063-9.477,9.062-14.648,7.704c-6.73-1.766-5.726-10.514-6.925-14.946
					C209.365,57.78,207.671,56.853,203.368,57.999z"/>
			</g>
		</g>
		<g>
			<g>
				<path fill="#F4D87E" d="M184.105,131.459l0.346,3.926l0.543,1.721c0.202,0.64-0.099,1.913-0.741,2.109
					c-3.291,1.002-12.592,3.179-14.185,3.157c0,0,0.086-1.686,1.249-1.969c1.163-0.283,8.2-4.705,8.2-4.705l-0.03-3.322
					L184.105,131.459z"/>
				<path fill="#0B53FF" d="M185.057,140.124c0,0,0.156-3.208-0.3-4.047c0,0-0.627,1.755-2.346,2.621
					c-1.561,0.534-6.413,2.594-7.223-0.34c-1.695,0.665-4.894,2.262-6.072,3.486c0,0,0.377,0.852,1.134,0.939
					c0,0,3.311-0.072,4.525-0.166l8.68-1.775l1.116,1.385l0.992-0.23L185.057,140.124z"/>
			</g>
			<path fill="#2175FB" d="M217.769,93.849c1.547,5.078,4.945,14.868-6.551,14.178c-12.49-0.75-30.285-3.975-30.285-3.975
				l3.892,28.983l-6.224,1.181c0,0-1.673-10.143-4.015-19.164c-2.342-9.021-7.535-17.911-0.672-20.391
				C180.777,92.18,217.769,93.849,217.769,93.849z"/>
		</g>
		<g>
			<path fill="#2175FB" d="M184.169,92.368h-25.466l-4.408-14.131c-0.37-1.187,0.516-2.392,1.759-2.392h21.605
				c0.806,0,1.519,0.524,1.759,1.294L184.169,92.368z"/>
			<path fill="#08104E" d="M197.277,93.851h-37.464c-0.613,0-1.11-0.497-1.11-1.11v-0.373h38.574c0.279,0,0.505,0.226,0.505,0.505
				v0.472C197.783,93.625,197.556,93.851,197.277,93.851z"/>
			<path fill="#0B53FF" d="M183.386,93.851h-23.55c-0.625,0-1.132-0.507-1.132-1.132v-0.35h25.466v0.699
				C184.169,93.5,183.819,93.851,183.386,93.851z"/>
			<path fill="#0B53FF" d="M167.825,82.453c-0.056,0-0.11,0.012-0.165,0.02c-0.008,0.836-0.529,1.515-1.199,1.614
				c0,0.007-0.002,0.013-0.002,0.02c0,0.913,0.611,1.654,1.366,1.654c0.754,0,1.365-0.74,1.365-1.654
				C169.19,83.194,168.579,82.453,167.825,82.453z"/>
		</g>
	</g>
	<g>
		<polygon fill="#F4D87E" points="481.488,71.025 474.12,77.245 466.075,71.492 467.994,66.244 468.39,64.24 469.171,60.273 
			477.242,60.052 477.59,61.465 478.531,65.278 		"/>
		<g>
			<path fill="#DEBB49" d="M477.59,61.465c-0.817,1.444-3.062,3.392-9.2,2.775l0.781-3.966l8.072-0.221L477.59,61.465z"/>
			<g>
				<path fill="#F4D87E" d="M480.779,49.883c0,6.96-3.356,12.602-7.496,12.602c-4.14,0-7.496-5.642-7.496-12.602
					c0-6.96,3.356-9.023,7.496-9.023C477.422,40.859,480.779,42.923,480.779,49.883z"/>
				<path fill="#DEBB49" d="M476.978,41.562c0,0,0.027,4.021-3.601,4.376c-3.629,0.355-6.931-1.833-7.768,2.917v-4.257l4.021-2.365
					L476.978,41.562z"/>
				<path fill="#232323" d="M481.562,43.925c0.679,2.377-1.129,12.989-2.148,15.139c-1.018,2.15-3.266,3.394-6.34,3.421
					c-3.922,0.035-5.25-1.902-6.042-3.033c-0.792-1.132-0.861-3.304-1.88-11.452c-1.019-8.148,5.443-9.243,7.819-9.243
					c2.376,0,3.498-0.037,3.95,1.548C480.308,40.116,480.883,41.548,481.562,43.925z M474.054,45.101
					c-2.166,1.008-6.001-1.026-7.467,0.623c-1.466,1.649-0.563,6.91-0.083,9.117c0.19,0.874,2.676,0.187,4.205,0.993
					c-2.104,1.985,0,3.678,2.314,3.678c2.196,0,4.28-0.701,2.879-3.386c1.076-1.168,3.386-0.058,3.853-1.051
					c0.671-1.426,0.297-8.068,0.297-8.068c-0.916-0.275-3.023-2.84-3.023-4.763C477.03,42.244,476.219,44.094,474.054,45.101z"/>
				<ellipse fill="#232323" cx="469.976" cy="49.426" rx="0.733" ry="1.074"/>
				<ellipse fill="#232323" cx="476.246" cy="49.426" rx="0.733" ry="1.074"/>
				<path fill="#FFFFFF" d="M471.029,56.839h4.315c0,0-0.466,1.867-1.983,1.867C471.845,58.706,471.211,57.613,471.029,56.839z"/>
				<path fill="#DEBB49" d="M473.187,50.5c0,0-2.754,4.41,0,4.404V50.5z"/>
			</g>
			<path fill="#232323" d="M475.345,39.347c0,0-0.585,1.918-3.963,1.922c-3.378,0.005-4.43,0.293-4.43,0.293
				S469.445,38.887,475.345,39.347z"/>
		</g>
		<g>
			<path fill="#ED1C24" d="M485.972,82.742c-0.231,0.075-0.438,0.146-0.618,0.212c0.107,0.987,0.226,3.295,0.35,5.45l0.015,0.246
				c0.034,0.598,0.071,1.179,0.107,1.712c0.066,0.975,0.131,1.792,0.199,2.254c0.199,1.136,0.36,2.313,0.489,3.414
				c0.323,2.785,0.44,5.1,0.44,5.1c-0.538-0.015-26.566,0-26.566,0l0.134-4.497l0.09-2.964l0.085-2.811l0.231-7.775
				c-0.233-0.078-0.632-0.16-1.131-0.246c-1.897-0.328-5.248-0.686-6.53-0.817c-0.326-0.034-0.518-0.054-0.518-0.054
				s2.879-12.021,4.65-13.925c3.22-2.026,6.564-2.816,10.975-3.806c0,0-0.275,1.666,0.545,3.101
				c1.977,3.448,8.514,2.836,9.387-1.043c0.209-0.929-0.032-2.055-0.032-2.055s9.047,1.877,10.8,3.971
				c1.372,2.318,3.893,12.566,3.893,12.566s-0.248,0.063-0.659,0.173C490.943,81.307,487.772,82.153,485.972,82.742z"/>
			<g>
				<polygon fill="#D31C24" points="483.522,75.621 485.354,82.954 485.718,88.649 483.522,82.683 				"/>
				<polygon fill="#D31C24" points="462.15,87.093 461.17,91.285 460.613,93.668 460.698,90.857 460.929,83.082 462.15,75.067 				
					"/>
			</g>
		</g>
		<g>
			<g>
				<path fill="#232323" d="M456.534,106.097c0,0-9.44,0.131-11.352,1.441c-4.716,3.234,0.32,5.742,1.799,5.944
					c1.082,0.148,10.241-0.777,11.536-2.113L456.534,106.097z"/>
				<path fill="#F4D87E" d="M456.534,106.097c0,0-4.008,0.853-4.754,1.826c-0.747,0.973-0.876,3.619-0.322,3.73
					c0.554,0.11,1.254,0.98,7.06-0.283L456.534,106.097z"/>
			</g>
			<path fill="#0B38FF" d="M456.429,106.05l2.049,5.41l38.044-6.966c3.71-0.819,10.137-4.219,9.309-7.138
				c-1.005-3.542-3.904-5.805-7.562-4.778L456.429,106.05z"/>
		</g>
		<path fill="#F4D87E" d="M461.17,91.285l-0.472-0.428l-2.442-2.206l1.542-5.815c-1.897-0.328-5.248-0.686-6.53-0.817l-1.457,7.437
			c-0.182,0.931,0.229,1.88,1.034,2.383l7.677,4.793l2.602,1.624l2.033-3.368L461.17,91.285z"/>
		<path fill="#F4D87E" d="M494.109,89.337l-1.8-8.39c-1.367,0.36-4.538,1.206-6.338,1.795l1.68,5.907l-1.826,1.712l-4.964,4.65
			l2.094,3.332l3.558-2.313l6.605-4.29C493.915,91.222,494.309,90.266,494.109,89.337z"/>
		<g>
			<path fill="#2154FB" d="M491.05,105.976l-1.974,5.438l-39.36-6.923c-3.721-0.768-8.021-3.726-8.086-5.918
				c-0.091-3.033,4.3-6.907,7.973-5.93L491.05,105.976z"/>
			<g>
				<path fill="#232323" d="M491.05,105.976c0,0,7.586,0.519,9.682,1.508c4.35,2.054,1.425,5.318-0.044,5.579
					c-1.076,0.191-10.264-0.366-11.612-1.649L491.05,105.976z"/>
				<path fill="#F4D87E" d="M491.05,105.976c0,0,3.835,0.782,4.62,1.724c0.785,0.942,1.021,3.581,0.471,3.714s-1.213,1.029-7.065,0
					L491.05,105.976z"/>
			</g>
		</g>
		<g>
			<path fill="#E6E7E8" d="M487.769,82.686l-2.031,15.999h-25.757l-0.302-2.384l-1.729-13.615c0-0.998,0.807-1.805,1.803-1.805
				h26.214C486.962,80.882,487.769,81.689,487.769,82.686z"/>
			<path fill="#D1D3D4" d="M485.736,100.198h-25.752c-0.282,0-0.51-0.228-0.51-0.51v-0.493c0-0.282,0.228-0.51,0.51-0.51h25.752
				c0.282,0,0.51,0.228,0.51,0.51v0.493C486.246,99.97,486.017,100.198,485.736,100.198z"/>
			<path fill="#D1D3D4" d="M472.859,87.74c-0.158,0-0.312,0.019-0.46,0.052c0.007,0.063,0.012,0.126,0.012,0.191
				c0,0.911-0.736,1.65-1.646,1.656c-0.007,0.068-0.01,0.136-0.01,0.206c0,1.163,0.942,2.105,2.105,2.105
				c1.163,0,2.105-0.942,2.105-2.105C474.964,88.683,474.022,87.74,472.859,87.74z"/>
		</g>
	</g>
	<g>
		<g>
			<g>
				<g>
					<path fill="#F4D87E" d="M114.28,225.751l0.647-3.429l0.901-1.316c0.335-0.489,0.408-1.643-0.085-1.973
						c-2.526-1.693-9.832-5.922-11.184-6.312c0,0-0.361,1.448,0.55,1.986s5.725,6.084,5.725,6.084l-0.226,3L114.28,225.751z"/>
					<path fill="#0B53FF" d="M107.012,213.154c0.62,0.212,1.224,0.425,1.591,0.568l6.488,4l1.695-1.154l0.78,0.449l-0.829,1.8
						c0,0-1.039,2.948-1.232,3.041c0,0-0.22-1.688-1.451-2.862c-1.183-0.852-4.757-3.84-6.195-1.567
						c-1.262-0.997-3.558-3.17-4.239-4.507c0,0,0.538-0.624,1.2-0.503C104.819,212.42,105.938,212.786,107.012,213.154"/>
					<path fill="#0B53FF" d="M110.231,223.261l-9.941,27.293c0,0,3.615,4.54,8.541,3.172l6.042-28.339L110.231,223.261z"/>
				</g>
				<g>
					<path fill="#F4D87E" d="M90.209,224.783l-1.748-3.02l-0.176-1.585c-0.066-0.59-0.764-1.511-1.353-1.44
						c-3.018,0.367-11.313,1.932-12.593,2.518c0,0,0.672,1.332,1.713,1.145c1.041-0.187,8.309,0.872,8.309,0.872l1.787,2.42
						L90.209,224.783z"/>
					<path fill="#2175FB" d="M141.142,242.376c-2.499-1.861-4.923-3.963-7.955-3.963c-3.532,0-6.488,2.102-10.558,4.803
						c-8.999-1.313-18.777,3.999-19.715,3.314c-5.708-12.555-10.562-19.157-12.073-22.011c0,0-4.554,0.131-5.415,1.578
						c6.093,10.503,7.325,26.979,16.147,28.277c6.642,0.977,39.191,0.849,40.793-1.145L141.142,242.376z"/>
					<path fill="#0B53FF" d="M87.544,217.927c0,0,1.137,2.911,1.052,3.108c0,0-1.269-1.135-2.967-1.221
						c-1.452,0.126-6.11,0.196-5.716,2.857c-1.608,0.068-4.764-0.079-6.153-0.647c0,0,0-0.823,0.581-1.164
						c0,0,2.702-1.126,3.717-1.483l7.526-1.205l0.531-1.981l0.884-0.168L87.544,217.927z"/>
				</g>
			</g>
			<g>
				<g>
					<path fill="#0B53FF" d="M190.324,217.294c2.377,0.003,7.434,10.755-8.617,16.299c-5.481,1.893-15.67-0.887-17.659-4.022
						c0,0,9.452-20.078,18.483-18.848C190.071,211.749,190.324,217.294,190.324,217.294z"/>
					<path fill="#F4D87E" d="M188.6,217.904c-1.925,2.85-0.433,8.821-6.304,9.327c0,0-1.029,0.148-2.264-0.308
						c0,0-1.826,2.999-3.279,3.694c-2.08,0.014-1.79-1.615-3.174-2.998c0,0,1.365-2.575,1.908-3.64c0,0,0.542-5.871,2.554-8.304
						c2.453-2.967,4.61-3.755,7.448-2.856C188.327,213.717,189.489,216.588,188.6,217.904z"/>
				</g>
				<g>
					<g>
						<path fill="#F4D87E" d="M200.835,248.841l-3.026-2.102l-4.1,0.485l-13.808-3.384l-0.618,4.06l13.869,0.909l1.475,0.389
							c0.429,0.113,0.885,0.067,1.282-0.13l1.894-0.938l2.672,1.67L200.835,248.841z"/>
						<path fill="#D31C24" d="M172.749,227.538c3.184,0.529,3.273,6.221,6.095,15.463l13.477,2.766l-0.853,3.269
							c0,0-14.691-0.71-16.919-1.161C172.321,247.423,167.37,226.645,172.749,227.538z"/>
					</g>
					<path fill="#ED1C24" d="M171.782,226.38c1.798,0,2.325,0.197,3.521,1.311c0.256,0.239,0.471,0.519,0.66,0.823l0.009-0.013
						c2.6,7.484,3.354,17.753-4.602,21.298c-1.56,0.695-5.991,2.077-10.605,2.433c-9.454,0.73-19.259,1.874-19.259,1.874
						c-0.776-0.797-0.505-11.764-0.505-11.764C157.971,242.341,166.748,226.38,171.782,226.38z"/>
					<g>
						<path fill="#F4D87E" d="M195.338,252.635l-2.855-1.985c-0.339-0.192-0.741-0.243-1.117-0.142l-3.583,0.965l-15.081-2.535
							l-0.026,4.685l14.77-0.277l1.585,0.234c0.461,0.068,0.926-0.048,1.308-0.327l1.818-1.328l3.018,1.517L195.338,252.635z"/>
						<path fill="#FB1518" d="M175.291,227.615c-1.128-1.05-1.624-1.235-3.319-1.235c-4.744,0-4.306,8.221-8.133,21.787
							c-0.388,1.375-2.701,5.219,1.218,5.582c3.918,0.363,19.657,0.773,19.657,0.773l1.699-4.463l-13.702-2.403
							C172.71,247.657,179.827,231.839,175.291,227.615z"/>
					</g>
				</g>
				<g>
					<path fill="#2175FB" d="M174.36,226.861c5.195,1.586,4.387-3.655,4.387-3.655c-1.96,0.454-1.479-4.362,0.522-4.645
						c1.275-0.18,1.014,1.795,1.014,1.795c2.658,2.5,5.428-4.903,10.041-3.063c0.197-3.043-2.673-6.175-5.242-7.662
						c-2.575-1.49-5.494-1.803-7.692-0.444c-1.866,1.153-1.833,3.658-3.818,4.654c-1.971,0.99-4.356,0.197-6.555-0.382
						c-2.217-0.583-4.944-0.785-6.404,0.996c-0.924,1.127-1.042,2.756-0.805,4.233c0.175,1.094,0.493,2.325-0.132,3.22
						c-0.616,0.882-1.859,1.033-2.933,0.921c-2.05-0.212-2.421-0.638-6.361-1.375c-3.532-0.661-7.397-0.595-10.601,1.158
						c-3.243,1.775-4.832,4.919-4.651,9.165c0.102,2.395,1.986,6.384,6.281,8.926c2.035,1.205,10.853,5.778,20.35,0.201
						c4.849-2.847,3.734-6.978,5.254-10.361C168.89,226.38,170.919,225.811,174.36,226.861z"/>
				</g>
			</g>
			<g>
				<circle fill="#FB1518" cx="179.695" cy="219.738" r="2.845"/>
				<g>
					<path fill="#D1D3D4" d="M187.781,213.778c-4.426,0.148-6.645,1.923-8.693,5.327l1.194,1.251c0,0,1.79-6.035,7.767-6.131
						L187.781,213.778z"/>
					<circle fill="#D1D3D4" cx="179.695" cy="219.738" r="1.572"/>
				</g>
			</g>
		</g>
		<g>
			<path fill="#2175FB" d="M194.301,253.286h23.604l4.086-13.098c0.343-1.1-0.479-2.217-1.631-2.217h-20.025
				c-0.747,0-1.408,0.486-1.631,1.199L194.301,253.286z"/>
			<path fill="#08104E" d="M182.151,254.66h34.724c0.568,0,1.029-0.46,1.029-1.029v-0.345h-35.753c-0.259,0-0.468,0.21-0.468,0.468
				v0.437C181.683,254.45,181.893,254.66,182.151,254.66z"/>
			<path fill="#0B53FF" d="M195.027,254.66h21.828c0.58,0,1.049-0.47,1.049-1.049v-0.325h-23.604v0.647
				C194.301,254.334,194.626,254.66,195.027,254.66z"/>
			<path fill="#0B53FF" d="M209.45,244.096c0.052,0,0.102,0.011,0.152,0.019c0.008,0.775,0.49,1.404,1.111,1.496
				c0,0.006,0.002,0.012,0.002,0.019c0,0.846-0.567,1.533-1.266,1.533c-0.699,0-1.266-0.686-1.266-1.533
				C208.185,244.782,208.751,244.096,209.45,244.096z"/>
		</g>
	</g>
	<g>
		<path fill="#B1B8FF" d="M665.581,447.87H458.735c-6.122,0-11.085-4.963-11.085-11.085l0,0c0-6.122,4.963-11.085,11.085-11.085
			h206.845c6.122,0,11.085,4.963,11.085,11.085l0,0C676.665,442.907,671.703,447.87,665.581,447.87z"/>
		<g>
			<path fill="#5065FC" d="M639.902,439.539H484.781c-6.668,0-12.073-5.405-12.073-12.073v-92.201
				c0-6.667,5.405-12.072,12.073-12.072h155.121c6.667,0,12.072,5.405,12.072,12.072v92.201
				C651.974,434.134,646.569,439.539,639.902,439.539z"/>
			<rect x="488.007" y="330.618" fill="#FEFEFF" width="148.669" height="101.496"/>
			<g>
				<g>
					<polygon fill="#96B3FF" points="488.007,378.017 496.245,396.687 520.411,356.6 534.499,378.551 543.153,360.383 
						555.922,388.118 564.936,371.177 586.602,421.123 619.259,357.211 636.676,400.489 636.676,432.114 488.007,432.114 					"/>
				</g>
				<polygon fill="#628AEC" points="636.676,378.017 622.622,404.968 606.778,364.591 599.01,382.991 588.991,352.325 
					561.864,415.264 552.85,398.324 540.272,412.447 515.558,371.236 488.007,420.704 488.007,432.114 636.676,432.114 				"/>
			</g>
			<path fill="#96B3FF" d="M644.599,371.445L644.599,371.445c-1.177,0-2.131,0.954-2.131,2.131v15.58
				c0,1.177,0.954,2.131,2.131,2.131l0,0c1.177,0,2.131-0.954,2.131-2.131v-15.58C646.73,372.399,645.776,371.445,644.599,371.445z"
				/>
		</g>
	</g>
	<g>
		<g>
			<g>
				<path fill="#2175FB" d="M103.2,342.757c-0.43-1.286-0.885-2.545-1.361-3.771L103.2,342.757z"/>
				<path fill="#2175FB" d="M101.79,350.024l0.029-11.086c-2.371-6.093-5.226-11.386-7.78-15.342
					c-2.862,3.032-3.789,12.449-3.789,12.449c0.269-9.727,1.31-12.634,1.41-15.819c-4.208-5.485-10.626-8.457-15.701-11.722
					c2.033,11.561,1.879,14.475,1.879,14.475c-0.67-6.925-2.937-11.714-4.08-15.827c-12.928-7.613-19.62-5.62-19.62-5.62
					c0.126,4.885,1.719,15.716,2.201,19.894c5.457,4.647,13.022,9.239,13.022,9.239c-3.92-1.255-9.051-4.296-12.694-6.644
					c0.828,6.046,0.755,5.053,2.307,9.835c5.438,4.969,16.478,10.655,16.478,10.655c-4.791-1.161-11.482-4.768-15.135-6.871
					c3.145,8.143,7.383,14.626,12.495,20.415c5.654,2.505,11.677,4.373,11.677,4.373c-2.758-0.162-6.225-0.983-9.426-1.922
					c6.039,6.323,13.146,11.944,21.008,18.25l7.953,3.229l2.497-11.879c1.152-9.464-0.52-18.929-3.286-27.236L101.79,350.024z"/>
			</g>
			<path fill="#0B53FF" d="M95.494,361.524c1.502,2.826,2.941,5.698,4.229,8.655c1.291,2.952,2.417,6.012,3.142,9.199l-0.138,0.04
				c-0.813-3.142-2.018-6.137-3.386-9.025c-1.366-2.892-2.879-5.696-4.455-8.454c-3.141-5.526-6.528-10.879-9.932-16.221
				c-3.4-5.345-6.939-10.594-10.133-16.116c-1.599-2.758-3.164-5.544-4.638-8.391c-1.482-2.841-2.87-5.747-4.112-8.728l0.125-0.076
				c3.168,5.532,6.466,10.933,9.81,16.314c3.354,5.37,6.584,10.846,9.885,16.275C89.183,350.433,92.461,355.89,95.494,361.524z"/>
		</g>
		<g>
			<g>
				<path fill="#2175FB" d="M89.799,409.4c-1.021-0.355-2.036-0.68-3.042-0.977L89.799,409.4z"/>
				<path fill="#2175FB" d="M93.697,413.827l-6.98-5.414c-4.998-1.47-9.727-2.245-13.465-2.559c0.52,3.281,6.01,8.449,6.01,8.449
					c-6.006-4.904-7.333-6.975-9.293-8.589c-5.508-0.015-10.507,2.587-15.037,4.2c8.283,4.345,10.046,5.86,10.046,5.86
					c-4.695-2.948-8.819-3.849-11.97-5.129c-11.095,4.451-13.094,9.642-13.094,9.642c3.143,2.298,10.751,6.565,13.622,8.295
					c5.588-1.181,12.167-3.719,12.167-3.719c-2.7,1.862-7.115,3.619-10.37,4.774c4.217,2.42,3.555,1.983,7.327,3.332
					c5.782-1.013,14.742-5.209,14.742-5.209c-3.064,2.457-8.597,4.923-11.701,6.204c6.668,1.979,12.821,2.461,18.961,2.053
					c4.332-2.348,8.442-5.238,8.442-5.238c-1.445,1.661-3.65,3.448-5.8,5.011c6.928-0.732,13.933-2.48,21.738-4.371l5.908-3.445
					l-6.279-7.357c-5.41-5.333-12.195-8.885-18.782-11.184L93.697,413.827z"/>
			</g>
			<path fill="#0B53FF" d="M97.888,423.396c2.514,0.428,5.026,0.918,7.518,1.544c2.49,0.622,4.969,1.401,7.333,2.495l-0.042,0.106
				c-2.378-1.016-4.854-1.714-7.342-2.256c-2.489-0.546-4.994-0.956-7.502-1.304c-5.015-0.708-10.041-1.177-15.067-1.63
				c-5.027-0.457-10.061-0.779-15.098-1.451c-2.518-0.334-5.037-0.702-7.551-1.158c-2.514-0.448-5.023-0.987-7.507-1.654
				l0.013-0.116c5.032,0.694,10.044,1.242,15.066,1.752c5.02,0.498,10.047,1.125,15.079,1.685
				C87.819,421.98,92.858,422.567,97.888,423.396z"/>
		</g>
		<g>
			<path fill="#96B3FF" d="M85.133,379.527c0.095-11.721,0.853-16.658-0.002-20.527c-6.742-5.008-14.069-8.22-21.175-10.23
				c5.985,13.139,4.506,22.426,4.506,22.426c-0.32-9.508-4.933-18.704-7.568-23.22c-17.885-4.273-33.55-1.381-33.55-1.381
				c1.648,5.829,3.401,11.131,5.26,15.975c7.989,3.529,18.497,6.194,18.497,6.194c-5.1-0.029-12.205-1.747-17.306-3.196
				c2.848,6.96,5.935,12.919,9.266,18.085c8.065,3.922,23.087,6.592,23.087,6.592c-6.119,0.413-15.274-1.398-20.313-2.546
				c6.278,8.607,13.361,14.805,21.285,19.836c7.57,0.876,15.388,0.848,15.388,0.848c-3.368,0.847-7.79,1.169-11.929,1.249
				c9.202,5.324,19.474,9.4,30.864,14.015L112,424.526l-0.632-15.234c-2.923-22.844-11.606-37.628-22.342-47.137
				C86.51,366.884,85.133,379.527,85.133,379.527z"/>
			<path fill="#2175FB" d="M109.653,421.928c-1.941-3.472-4.307-6.62-6.838-9.577c-2.529-2.963-5.207-5.764-7.949-8.486
				c-5.471-5.461-11.185-10.62-16.916-15.761c-5.727-5.146-11.592-10.122-17.126-15.558c-2.768-2.714-5.505-5.473-8.15-8.342
				c-2.653-2.858-5.212-5.83-7.619-8.946l0.127-0.139c5.506,5.458,11.127,10.709,16.798,15.919
				c5.68,5.192,11.242,10.559,16.877,15.843c5.622,5.298,11.238,10.623,16.613,16.255c2.673,2.832,5.283,5.743,7.739,8.813
				c2.457,3.063,4.748,6.319,6.597,9.879L109.653,421.928z"/>
		</g>
	</g>
	<g>
		<path fill="#B1B8FF" d="M245.306,444.427H82.231c-6.122,0-11.085-4.963-11.085-11.085v0c0-6.122,4.963-11.085,11.085-11.085
			h163.074c6.122,0,11.085,4.963,11.085,11.085v0C256.39,439.464,251.427,444.427,245.306,444.427z"/>
		<g>
			<g>
				<path fill="#5065FC" d="M102.987,421.27V266.149c0-6.667,5.405-12.072,12.072-12.072h92.201c6.667,0,12.073,5.405,12.073,12.072
					V421.27c0,6.667-5.405,12.072-12.073,12.072h-92.201C108.392,433.342,102.987,427.937,102.987,421.27z"/>
				<rect x="110.412" y="269.375" fill="#FEFEFF" width="101.496" height="148.669"/>
				<path fill="#96B3FF" d="M171.081,425.967L171.081,425.967c0-1.177-0.954-2.131-2.131-2.131h-15.58
					c-1.177,0-2.131,0.954-2.131,2.131l0,0c0,1.177,0.954,2.131,2.131,2.131h15.58C170.127,428.098,171.081,427.144,171.081,425.967
					z"/>
			</g>
			<g>
				<g>
					<rect x="124.429" y="320.66" fill="#E0E9FF" width="13.405" height="31.138"/>
					<rect x="145.152" y="305.422" fill="#E0E9FF" width="13.405" height="46.376"/>
					<rect x="165.875" y="284.392" fill="#96B3FF" width="13.405" height="67.405"/>
					<rect x="186.598" y="313.873" fill="#628AEC" width="13.405" height="37.925"/>
					<g>
						<polygon fill="#5065FC" points="206.103,352.823 116.54,352.823 116.54,285.649 118.591,285.649 118.591,350.772 
							206.103,350.772 						"/>
					</g>
				</g>
				<g>
					<rect x="117.565" y="364.565" fill="#E0E9FF" width="86.864" height="8.318"/>
					<rect x="117.565" y="379.815" fill="#E0E9FF" width="86.864" height="8.318"/>
					<rect x="117.565" y="395.065" fill="#E0E9FF" width="86.864" height="8.318"/>
				</g>
			</g>
		</g>
	</g>
	<g>
		<g>
			<g>
				<path fill="#F4D87E" d="M503.227,172.754c0,0-9.457,14.853,0.797,15.236c0,0,0.094,4.709-0.586,6.019l9.451-0.808l-0.489-4.926
					c0,0,3.268-6.996,3.782-10.775c0.513-3.779-0.73-7.052-4.756-8.15S503.856,168.855,503.227,172.754z"/>
			</g>
			<g>
				<path fill="#232323" d="M510.052,179.234c0,0,0.834-4.094-2.261-4.865c-3.094-0.77-4.797-0.889-4.797-0.889
					s-3.795-7.281,2.465-6.324c12.525-2.274,14.822,3.468,15.318,7.453c0.496,3.985-4.868,10.709-5.984,14.744
					c-1.309,1.108-4.233,0.13-4.233,0.13l-0.333-5.319c0,0,2.655-0.66,3.357-3.004C514.288,178.816,512.837,177.014,510.052,179.234
					z"/>
			</g>
			<g>
				
					<ellipse transform="matrix(-0.894 -0.4481 0.4481 -0.894 875.6749 562.4868)" fill="#200845" cx="504.37" cy="177.666" rx="0.876" ry="1.174"/>
			</g>
			<g>
				<path fill="#F38E46" d="M500.747,181.209c0.092,0.059,3.153,1.152,3.243,1.12c0.09-0.032-1.188,2.88-2.966,2.126
					c-0.721-0.308-0.667-1.051-0.667-1.051L500.747,181.209z"/>
			</g>
		</g>
		<g>
			<g>
				<path fill="#D1D3D4" d="M493.726,317.523l0.725,2.47c0,0-0.622,2.691-2.915,2.493c-2.293-0.198-6.467-1.916-6.467-1.916
					l-0.314-5.936L493.726,317.523z"/>
			</g>
			<g>
				<path fill="#D1D3D4" d="M512.572,317.147l0.725,2.47c0,0-0.622,2.691-2.915,2.493c-2.293-0.198-6.467-1.916-6.467-1.916
					l-0.314-5.936L512.572,317.147z"/>
			</g>
			<g>
				<path fill="#0B38FF" d="M513.566,232.558c0,0,5.106,12.391,3.548,20.496c-0.763,3.97-5.22,26.6-5.51,29.569
					c0,0,1.683,31.88,2.462,35.954c0,0-10.087,1.167-11.326,0.226c-1.239-0.941-2.95-34.201-2.65-36.647
					c0.3-2.447-0.664-29.795-0.664-29.795l1.737-21.127L513.566,232.558z"/>
			</g>
			<g>
				<path fill="#2154FB" d="M508.101,235.013c0,0,0.984,8.946-0.735,15.122c-1.719,6.176-11.321,17.423-13.666,29.139
					c0,0,1.645,39.273,0.793,39.659c-0.852,0.385-10.849-1.994-10.849-1.994s-3.273-34.696-3.094-38.016
					c0.179-3.32,7.242-30.976,9.118-35.435c1.876-4.46,2.681-9.959,2.681-9.959S506.473,233.299,508.101,235.013z"/>
			</g>
			<g>
				<path fill="#232C48" d="M494.452,319.993c0,0,0.27,6.153-0.454,6.607c-0.724,0.454-4.754,0.535-4.754,0.535l-1.063-1.811
					c0,0-1.492,2.376-2.518,2.396c-1.026,0.021-9.843-0.976-10.883-1.615c-1.039-0.639,0.685-6.099,3.56-5.276
					c2.876,0.822,3.984,1.24,3.984,1.24l0.822-2.873c0,0,6.431,2.655,8.398,2.029C493.51,320.599,494.452,319.993,494.452,319.993z"
					/>
			</g>
			<g>
				<path fill="#232C48" d="M513.294,320.006c0,0,0.237,5.418-0.4,5.818c-0.638,0.4-3.187,0.438-3.187,0.438l-0.936-1.595
					c0,0-1.277,1.689-2.181,1.707c-0.903,0.018-9.704-0.423-10.619-0.986c-0.915-0.563,0.603-5.37,3.135-4.646
					c2.532,0.724,3.508,1.092,3.508,1.092l0.724-2.53c0,0,5.557,1.809,7.289,1.258C512.36,320.01,513.294,320.006,513.294,320.006z"
					/>
			</g>
		</g>
		<g>
			<g>
				<path fill="#F4D87E" d="M469.672,176.141c0.048-0.417,2.345-5.935,1.787-7.025c-0.054-0.106-2.511,0.862-2.877,1.833
					c0,0-1.522-3.638-2.66-4.022c-1.138-0.385-4.429,2.529-4.666,3.852c-0.237,1.324,5.509,7.137,5.509,7.137L469.672,176.141z"/>
			</g>
			<g>
				<path fill="#ED1C24" d="M475.193,196.602c0,0,18.99,8.855,20.508,9.917c0,0-0.005,0.026-0.019,0.074
					c-0.246,1.025-3.013,12.814-0.614,18.201c-0.131,3.392-2.718,8.733-2.718,8.733s3.399,0.994,6.546,1.386
					c1.107,0.135,2.18,0.197,3.063,0.117c3.566-0.328,6.089,0.25,7.787,0.137c3.182-0.215,5.338-1.195,5.338-1.195
					s2.804-22.281,3.714-26.071l-3.714,26.071l-0.858,0.324l1.958,6.488c0.137-0.07,3.317-7.349,5.512-11.99
					c1.918-7.898,2.342-14.365,2.639-16.191c0.722-4.447-1.024-10.615-1.024-10.615c-3.08-4.134-9.828-6.725-9.828-6.725
					l-13.275-1.236l-19.328-2.445l-10.422-16.084l-4.213,2.807L475.193,196.602z"/>
			</g>
			<g>
				<g>
					<path fill="#D31C24" d="M513.726,191.882c-0.086-0.167-13.518,2.145-13.518,2.145l2.841,1.443l10.432-0.209
						C513.481,195.261,515.091,194.542,513.726,191.882z"/>
				</g>
				<g>
					<path fill="#D31C24" d="M492.349,233.527c0,0,3.399,0.994,6.546,1.386l0.949-1.751c0,0-1.662-6.474-0.469-10.882
						c1.188-4.408-3.055-15.7-3.055-15.7l-0.638,0.013c-0.246,1.025-3.013,12.814-0.614,18.201
						C494.936,228.187,492.349,233.527,492.349,233.527z"/>
				</g>
				<g>
					<polygon fill="#D31C24" points="518.755,207.177 514.901,234.048 517.778,220.609 519.092,213.08 					"/>
				</g>
			</g>
		</g>
	</g>
</g>
</svg>
