<svg width="24" height="24" viewBox="0 0 24 24" fill="none" xmlns="http://www.w3.org/2000/svg">
<path d="M24 12.2665C24 11.2799 23.9183 10.5599 23.7415 9.81323H12.2449V14.2665H18.9932C18.8572 15.3732 18.1225 17.0399 16.4898 18.1598L16.4669 18.3089L20.1019 21.0686L20.3537 21.0932C22.6666 18.9999 24 15.9199 24 12.2665" fill="#4285F4"/>
<path d="M12.2451 23.9999C15.5512 23.9999 18.3266 22.9332 20.3539 21.0933L16.4899 18.1599C15.456 18.8666 14.0682 19.3599 12.2451 19.3599C9.00704 19.3599 6.25877 17.2666 5.27909 14.3733L5.13549 14.3852L1.35577 17.2519L1.30634 17.3866C3.31991 21.3065 7.45596 23.9999 12.2451 23.9999Z" fill="#34A853"/>
<path d="M5.27884 14.3734C5.02034 13.6267 4.87074 12.8266 4.87074 12C4.87074 11.1733 5.02034 10.3733 5.26524 9.62667L5.25839 9.46766L1.4313 6.55493L1.30609 6.6133C0.476194 8.23999 0 10.0667 0 12C0 13.9333 0.476194 15.76 1.30609 17.3866L5.27884 14.3734" fill="#FBBC05"/>
<path d="M12.2451 4.63997C14.5444 4.63997 16.0954 5.6133 16.9797 6.42669L20.4355 3.12C18.3131 1.18667 15.5512 0 12.2451 0C7.45596 0 3.31991 2.69331 1.30634 6.61328L5.26549 9.62666C6.25877 6.73333 9.00704 4.63997 12.2451 4.63997" fill="#EB4335"/>
</svg>
