<?xml version="1.0" encoding="utf-8"?>
<!-- Generator: Adobe Illustrator 17.0.0, SVG Export Plug-In . SVG Version: 6.00 Build 0)  -->
<!DOCTYPE svg PUBLIC "-//W3C//DTD SVG 1.1//EN" "http://www.w3.org/Graphics/SVG/1.1/DTD/svg11.dtd">
<svg version="1.1" id="Layer_1" xmlns="http://www.w3.org/2000/svg" xmlns:xlink="http://www.w3.org/1999/xlink" x="0px" y="0px"
	 width="567px" height="133px" viewBox="0 0 567 133" enable-background="new 0 0 567 133" xml:space="preserve">
<g>
	<linearGradient id="SVGID_1_" gradientUnits="userSpaceOnUse" x1="4.8793" y1="92.068" x2="194.8484" y2="92.068">
		<stop  offset="0" style="stop-color:#B9D431"/>
		<stop  offset="1" style="stop-color:#41B8BA"/>
		<stop  offset="1" style="stop-color:#41B8BA"/>
	</linearGradient>
	<path fill="url(#SVGID_1_)" d="M194.848,114.435c-23.745,0.126-23.99-45.873-47.735-45.746
		c-23.744,0.126-23.499,46.126-47.244,46.252c-23.748,0.126-23.993-45.873-47.74-45.746s-23.503,46.126-47.25,46.252"/>
</g>
<g opacity="0.9">
	<path fill="#093FE9" stroke="#093FE9" stroke-width="3" stroke-miterlimit="10" d="M546.752,92.39
		c0.073,1.45,0.036,2.285,0.169,3.094c0.455,2.771-0.622,4.215-3.59,4.32c-7.723,0.275-12.953,1.236-20.624,0.767
		c-10.166-0.622-14.733-5.023-16.589-14.828c-1.685-8.899-1.758-17.903,0.451-26.745c2.047-8.193,6.74-12.146,15.291-12.719
		c5.412-0.363,10.907-0.307,16.31,0.164c7.617,0.664,11.454,5.66,11.993,13.118c0.977,13.509-2.665,18.112-16.607,18.233
		c-4.245,0.037-8.499,0.17-12.733-0.041c-3.107-0.155-3.688,1.195-3.417,3.819c0.649,6.268,3.08,9.383,9.52,10.223
		c5.251,0.685,10.631,0.449,15.955,0.587C544.913,92.434,544.417,92.39,546.752,92.39z M526.497,70.955c0-0.016,0-0.032,0-0.048
		c2.293,0,4.591,0.099,6.877-0.024c3.243-0.174,5.871-1.259,6.709-4.774c0.878-3.682-0.626-8.646-3.206-10.251
		c-8.581-5.338-18.945-0.288-19.524,9.514c-0.33,5.582-0.33,5.582,5.524,5.584C524.083,70.955,525.29,70.955,526.497,70.955z"/>
	<path fill="#093FE9" stroke="#093FE9" stroke-width="3" stroke-miterlimit="10" d="M458.562,100.799
		c-4.327-0.22-8.464-0.036-12.441-0.724c-6.107-1.056-9.421-4.811-10.29-10.833c-0.353-2.448-0.59-4.935-0.597-7.406
		c-0.049-18.193,0.06-36.386-0.106-54.577c-0.031-3.351,1.076-4.266,4.346-4.172c9.159,0.261,7.991-0.975,8.024,7.687
		c0.06,15.712,0.003,31.424,0.032,47.136c0.004,2.359,0.1,4.728,0.341,7.074c0.349,3.403,2.199,5.611,5.721,6.45
		c5.383,1.282,5.377,1.321,5.213,6.774C458.786,98.791,458.698,99.373,458.562,100.799z"/>
	<path fill="#093FE9" stroke="#093FE9" stroke-width="3" stroke-miterlimit="10" d="M488.459,100.699c-3.73,0-7.341,0-11.265,0
		c0-18.448,0-36.742,0-55.639c3.336,0,6.693-0.115,10.029,0.098c0.655,0.042,1.761,1.347,1.763,2.072
		c0.057,17.512-0.007,35.024-0.065,52.537C488.92,99.978,488.72,100.188,488.459,100.699z"/>
	<path fill="#093FE9" stroke="#093FE9" stroke-width="3" stroke-miterlimit="10" d="M482.944,35.633
		c-0.964-0.003-1.935-0.07-2.892,0.01c-2.838,0.236-3.797-1.007-3.733-3.737c0.235-9.945-1.361-8.665,9.053-8.884
		c3.1-0.065,4.57,0.904,4.23,4.019c-0.076,0.697-0.012,1.409-0.012,2.115C489.593,36.493,489.82,35.558,482.944,35.633z"/>
	<path fill="#093FE9" stroke="#093FE9" stroke-width="3" stroke-miterlimit="10" d="M330.113,73.432
		c0,5.385-1.074,10.129-3.223,14.233c-2.149,4.104-5.032,7.305-8.652,9.603c-3.62,2.299-7.667,3.447-12.14,3.447
		c-4.474,0-8.52-1.148-12.14-3.447c-3.62-2.298-6.505-5.499-8.653-9.603c-2.149-4.103-3.222-8.848-3.222-14.233
		c0-5.384,1.073-10.128,3.222-14.233c2.148-4.102,5.033-7.321,8.653-9.652c3.62-2.331,7.666-3.497,12.14-3.497
		c4.473,0,8.52,1.166,12.14,3.497c3.62,2.331,6.503,5.55,8.652,9.652C329.038,63.304,330.113,68.049,330.113,73.432z
		 M319.517,73.432c0-3.349-0.604-6.254-1.81-8.716c-1.207-2.462-2.825-4.383-4.856-5.762c-2.03-1.379-4.282-2.068-6.754-2.068
		c-2.472,0-4.724,0.689-6.754,2.068c-2.031,1.379-3.651,3.299-4.857,5.762c-1.207,2.462-1.81,5.368-1.81,8.716
		c0,3.284,0.603,6.156,1.81,8.618c1.206,2.462,2.826,4.383,4.857,5.762c2.03,1.379,4.282,2.068,6.754,2.068
		c2.472,0,4.724-0.69,6.754-2.068c2.031-1.379,3.649-3.299,4.856-5.762C318.913,79.588,319.517,76.716,319.517,73.432z"/>
	<path fill="#093FE9" stroke="#093FE9" stroke-width="3" stroke-miterlimit="10" d="M385.207,73.432
		c0,5.385-1.074,10.129-3.223,14.233c-2.149,4.104-5.032,7.305-8.652,9.603c-3.62,2.299-7.667,3.447-12.14,3.447
		c-4.474,0-8.52-1.148-12.14-3.447c-3.62-2.298-6.505-5.499-8.653-9.603c-2.149-4.103-3.222-8.848-3.222-14.233
		c0-5.384,1.073-10.128,3.222-14.233c2.148-4.102,5.033-7.321,8.653-9.652c3.62-2.331,7.666-3.497,12.14-3.497
		c4.473,0,8.52,1.166,12.14,3.497c3.62,2.331,6.503,5.55,8.652,9.652C384.132,63.304,385.207,68.049,385.207,73.432z
		 M374.611,73.432c0-3.349-0.604-6.254-1.81-8.716c-1.207-2.462-2.825-4.383-4.856-5.762c-2.03-1.379-4.282-2.068-6.754-2.068
		c-2.472,0-4.724,0.689-6.754,2.068c-2.031,1.379-3.651,3.299-4.857,5.762c-1.207,2.462-1.81,5.368-1.81,8.716
		c0,3.284,0.603,6.156,1.81,8.618c1.206,2.462,2.826,4.383,4.857,5.762c2.03,1.379,4.282,2.068,6.754,2.068
		c2.472,0,4.724-0.69,6.754-2.068c2.031-1.379,3.649-3.299,4.856-5.762C374.007,79.588,374.611,76.716,374.611,73.432z"/>
	<path fill="#093FE9" stroke="#093FE9" stroke-width="3" stroke-miterlimit="10" d="M421.173,100.699
		c-4.306-0.219-8.423-0.036-12.381-0.721c-6.077-1.051-9.375-4.788-10.24-10.781c-0.352-2.437-0.587-4.911-0.594-7.37
		c-0.049-18.104,0.06-36.21-0.106-54.313c-0.03-3.335,1.071-4.245,4.325-4.152c9.115,0.26,7.952-0.97,7.985,7.65
		c0.059,15.635,0.003,31.271,0.032,46.907c0.004,2.348,0.1,4.705,0.339,7.04c0.347,3.387,2.189,5.584,5.694,6.419
		c5.357,1.275,5.351,1.314,5.187,6.741C421.396,98.701,421.308,99.28,421.173,100.699z"/>
	<path fill="#093FE9" stroke="#093FE9" stroke-width="3" stroke-miterlimit="10" d="M271.984,24.79
		c-0.978-1.069-2.301-1.606-3.975-1.606c-1.464,0-2.737,0.536-3.817,1.606c-1.082,1.071-1.621,2.418-1.621,4.041v26.867h-36.396
		V28.831c0-1.623-0.541-2.97-1.621-4.041c-1.082-1.069-2.319-1.606-3.713-1.606c-1.674,0-3.033,0.536-4.079,1.606
		c-1.046,1.071-1.569,2.418-1.569,4.041v66.217c0,1.624,0.505,2.972,1.517,4.041c1.01,1.071,2.317,1.606,3.922,1.606
		c1.464,0,2.736-0.535,3.817-1.606c1.081-1.069,1.656-2.417,1.726-4.041v-26.69h36.396v26.69c0,1.624,0.523,2.972,1.569,4.041
		c1.045,1.071,2.301,1.606,3.765,1.606c1.673,0,3.015-0.535,4.026-1.606c1.01-1.069,1.517-2.417,1.517-4.041V28.831
		C273.447,27.208,272.959,25.861,271.984,24.79z"/>
</g>
<g>
	<linearGradient id="SVGID_2_" gradientUnits="userSpaceOnUse" x1="99.132" y1="114.8616" x2="99.132" y2="7.803">
		<stop  offset="0" style="stop-color:#025192"/>
		<stop  offset="1" style="stop-color:#41B8BA"/>
	</linearGradient>
	<path fill="none" stroke="url(#SVGID_2_)" stroke-width="7" stroke-miterlimit="10" d="M147.999,111.362
		c-24.434-0.029-24.314-100.029-48.747-100.059s-24.554,99.971-48.987,99.941"/>
</g>
</svg>
