<?xml version="1.0" encoding="utf-8"?>
<!-- Generator: Adobe Illustrator 17.0.0, SVG Export Plug-In . SVG Version: 6.00 Build 0)  -->
<!DOCTYPE svg PUBLIC "-//W3C//DTD SVG 1.1//EN" "http://www.w3.org/Graphics/SVG/1.1/DTD/svg11.dtd">
<svg version="1.1" id="Layer_1" xmlns="http://www.w3.org/2000/svg" xmlns:xlink="http://www.w3.org/1999/xlink" x="0px" y="0px"
	 width="372px" height="133px" viewBox="0 0 372 133" enable-background="new 0 0 372 133" xml:space="preserve">
<g opacity="0.9">
	<path fill="#5B5B5B" stroke="#5B5B5B" stroke-width="3" stroke-miterlimit="10" d="M357.017,97.584
		c0.076,1.517,0.038,2.39,0.177,3.236c0.476,2.898-0.65,4.409-3.755,4.519c-8.078,0.288-13.549,1.293-21.573,0.803
		c-10.634-0.65-15.411-5.254-17.353-15.511c-1.763-9.309-1.839-18.727,0.471-27.976c2.141-8.57,7.05-12.705,15.995-13.304
		c5.661-0.38,11.409-0.321,17.061,0.171c7.968,0.694,11.981,5.921,12.546,13.722c1.022,14.131-2.787,18.946-17.372,19.072
		c-4.44,0.038-8.89,0.178-13.319-0.043c-3.25-0.162-3.858,1.25-3.574,3.995c0.679,6.556,3.222,9.815,9.959,10.693
		c5.493,0.716,11.121,0.47,16.689,0.614C355.094,97.63,354.575,97.584,357.017,97.584z M335.83,75.162c0-0.017,0-0.033,0-0.05
		c2.399,0,4.803,0.103,7.194-0.025c3.392-0.182,6.141-1.317,7.018-4.994c0.918-3.852-0.654-9.044-3.354-10.723
		c-8.976-5.584-19.818-0.301-20.423,9.952c-0.345,5.839-0.345,5.839,5.778,5.841C333.305,75.162,334.568,75.162,335.83,75.162z"/>
	<path fill="#5B5B5B" stroke="#5B5B5B" stroke-width="3" stroke-miterlimit="10" d="M264.767,106.38
		c-4.527-0.23-8.853-0.038-13.014-0.757c-6.388-1.105-9.855-5.033-10.764-11.332c-0.37-2.561-0.617-5.163-0.624-7.746
		c-0.052-19.03,0.063-38.061-0.111-57.09c-0.032-3.505,1.126-4.462,4.546-4.364c9.581,0.273,8.359-1.02,8.393,8.041
		c0.062,16.435,0.003,32.871,0.033,49.306c0.004,2.468,0.105,4.946,0.357,7.4c0.365,3.56,2.301,5.87,5.985,6.747
		c5.631,1.341,5.624,1.382,5.453,7.085C265.002,104.28,264.909,104.889,264.767,106.38z"/>
	<path fill="#5B5B5B" stroke="#5B5B5B" stroke-width="3" stroke-miterlimit="10" d="M296.041,106.275c-3.902,0-7.679,0-11.784,0
		c0-19.297,0-38.434,0-58.2c3.49,0,7.001-0.12,10.49,0.103c0.685,0.044,1.842,1.409,1.844,2.167
		c0.059,18.318-0.008,36.637-0.068,54.956C296.523,105.521,296.314,105.741,296.041,106.275z"/>
	<path fill="#5B5B5B" stroke="#5B5B5B" stroke-width="3" stroke-miterlimit="10" d="M290.272,38.214
		c-1.009-0.003-2.024-0.073-3.025,0.01c-2.969,0.247-3.972-1.054-3.905-3.909c0.246-10.403-1.424-9.064,9.469-9.293
		c3.243-0.068,4.78,0.946,4.424,4.204c-0.08,0.73-0.013,1.474-0.012,2.212C297.227,39.114,297.465,38.136,290.272,38.214z"/>
	<path fill="#5B5B5B" stroke="#5B5B5B" stroke-width="3" stroke-miterlimit="10" d="M130.404,77.753
		c0,5.633-1.124,10.596-3.371,14.888c-2.248,4.293-5.264,7.641-9.051,10.045c-3.787,2.405-8.02,3.606-12.699,3.606
		c-4.68,0-8.912-1.201-12.699-3.606c-3.787-2.404-6.805-5.752-9.051-10.045c-2.248-4.292-3.371-9.255-3.371-14.888
		c0-5.631,1.122-10.594,3.371-14.888c2.247-4.291,5.265-7.658,9.051-10.096c3.787-2.438,8.019-3.658,12.699-3.658
		c4.679,0,8.912,1.22,12.699,3.658c3.787,2.439,6.803,5.805,9.051,10.096C129.28,67.159,130.404,72.122,130.404,77.753z
		 M119.321,77.753c0-3.503-0.632-6.542-1.893-9.118c-1.263-2.576-2.955-4.585-5.08-6.027c-2.124-1.443-4.479-2.164-7.065-2.164
		s-4.941,0.721-7.065,2.164c-2.125,1.442-3.819,3.451-5.08,6.027c-1.263,2.576-1.893,5.615-1.893,9.118
		c0,3.435,0.631,6.439,1.893,9.015c1.261,2.576,2.956,4.585,5.08,6.027c2.124,1.442,4.479,2.164,7.065,2.164
		s4.941-0.721,7.065-2.164c2.125-1.442,3.817-3.451,5.08-6.027C118.689,84.192,119.321,81.188,119.321,77.753z"/>
	<path fill="#5B5B5B" stroke="#5B5B5B" stroke-width="3" stroke-miterlimit="10" d="M188.034,77.753
		c0,5.633-1.124,10.596-3.371,14.888c-2.248,4.293-5.264,7.641-9.051,10.045c-3.787,2.405-8.02,3.606-12.699,3.606
		c-4.68,0-8.912-1.201-12.699-3.606c-3.787-2.404-6.805-5.752-9.051-10.045c-2.248-4.292-3.371-9.255-3.371-14.888
		c0-5.631,1.122-10.594,3.371-14.888c2.247-4.291,5.265-7.658,9.051-10.096c3.787-2.438,8.019-3.658,12.699-3.658
		c4.679,0,8.912,1.22,12.699,3.658c3.787,2.439,6.803,5.805,9.051,10.096C186.911,67.159,188.034,72.122,188.034,77.753z
		 M176.951,77.753c0-3.503-0.632-6.542-1.893-9.118c-1.263-2.576-2.955-4.585-5.08-6.027c-2.124-1.443-4.479-2.164-7.065-2.164
		s-4.941,0.721-7.065,2.164c-2.125,1.442-3.819,3.451-5.08,6.027c-1.263,2.576-1.893,5.615-1.893,9.118
		c0,3.435,0.631,6.439,1.893,9.015c1.261,2.576,2.956,4.585,5.08,6.027c2.124,1.442,4.479,2.164,7.065,2.164
		s4.941-0.721,7.065-2.164c2.125-1.442,3.817-3.451,5.08-6.027C176.319,84.192,176.951,81.188,176.951,77.753z"/>
	<path fill="#5B5B5B" stroke="#5B5B5B" stroke-width="3" stroke-miterlimit="10" d="M225.657,106.275
		c-4.505-0.229-8.81-0.038-12.951-0.754c-6.357-1.099-9.807-5.008-10.712-11.277c-0.368-2.549-0.614-5.138-0.621-7.709
		c-0.051-18.938,0.062-37.877-0.111-56.813c-0.032-3.488,1.12-4.44,4.524-4.343c9.534,0.272,8.318-1.015,8.352,8.002
		c0.062,16.355,0.003,32.711,0.033,49.066c0.004,2.456,0.105,4.922,0.355,7.364c0.363,3.543,2.29,5.841,5.956,6.714
		c5.604,1.334,5.597,1.375,5.426,7.051C225.89,104.185,225.798,104.791,225.657,106.275z"/>
	<path fill="#5B5B5B" stroke="#5B5B5B" stroke-width="3" stroke-miterlimit="10" d="M69.598,26.871
		c-1.023-1.119-2.407-1.679-4.158-1.679c-1.531,0-2.863,0.561-3.993,1.679c-1.132,1.12-1.696,2.53-1.696,4.227v28.104H21.68V31.099
		c0-1.698-0.566-3.107-1.695-4.227c-1.132-1.119-2.426-1.679-3.884-1.679c-1.751,0-3.173,0.561-4.267,1.679
		c-1.094,1.12-1.641,2.53-1.641,4.227v69.265c0,1.699,0.528,3.109,1.586,4.227c1.057,1.12,2.424,1.68,4.103,1.68
		c1.532,0,2.862-0.559,3.993-1.68c1.13-1.119,1.732-2.528,1.805-4.227V72.445h38.072v27.919c0,1.699,0.547,3.109,1.642,4.227
		c1.093,1.12,2.406,1.68,3.938,1.68c1.75,0,3.154-0.559,4.212-1.68c1.057-1.119,1.586-2.528,1.586-4.227V31.099
		C71.13,29.401,70.619,27.991,69.598,26.871z"/>
</g>
</svg>
