<svg width="18" height="24" viewBox="0 0 18 24" fill="none" xmlns="http://www.w3.org/2000/svg">
<path d="M15.5455 9.80005H2.45455C1.65122 9.80005 1 10.4567 1 11.2667V21.5334C1 22.3434 1.65122 23 2.45455 23H15.5455C16.3488 23 17 22.3434 17 21.5334V11.2667C17 10.4567 16.3488 9.80005 15.5455 9.80005Z" stroke="#4A3AFF" stroke-width="1.5" stroke-linecap="round" stroke-linejoin="round"/>
<path d="M3.9071 9.79998V6.13332C3.9071 4.77188 4.44347 3.4662 5.3982 2.50352C6.35293 1.54083 7.64782 1 8.99801 1C10.3482 1 11.6431 1.54083 12.5978 2.50352C13.5526 3.4662 14.0889 4.77188 14.0889 6.13332V9.79998" stroke="#4A3AFF" stroke-width="1.5" stroke-linecap="round" stroke-linejoin="round"/>
</svg>
